<svg width="163" height="25" viewBox="0 0 163 25" fill="none" xmlns="http://www.w3.org/2000/svg">
<path fill-rule="evenodd" clip-rule="evenodd" d="M33.0626 0.195031C29.0673 0.942449 26.1513 3.32278 24.8592 6.89141C24.2393 8.60376 24.0195 10.0478 24.0249 12.3735C24.0305 14.7202 24.2866 16.2481 24.975 18.0411C26.0079 20.7309 28.065 22.8588 30.6495 23.911C33.8834 25.2278 38.2981 25.1692 41.3378 23.7691C42.6636 23.1584 43.7108 22.4071 44.6559 21.3886C46.121 19.8098 46.9626 18.0679 47.4781 15.5468C47.723 14.3488 47.7507 13.8654 47.6945 11.7738C47.6393 9.71169 47.581 9.19724 47.2798 8.11036C46.3703 4.82921 44.6102 2.60229 41.8506 1.24126C40.1005 0.378025 38.8365 0.104533 36.2974 0.0396275C34.7422 -8.90967e-05 33.8856 0.0410956 33.0626 0.195031ZM61.6831 0.186904C60.3283 0.418807 58.9092 0.909664 57.7998 1.5302C56.6429 2.17726 54.8073 4.02755 54.1654 5.19373C52.9035 7.4865 52.3325 10.6894 52.6241 13.8396C53.1822 19.8679 56.377 23.5998 61.8814 24.6537C63.1589 24.8984 66.6112 24.8534 67.8891 24.5756C71.6932 23.7483 73.9688 21.6524 74.8417 18.1716C75.1871 16.7942 75.4387 13.6719 75.3115 12.3402L75.2127 11.3073H69.3404H63.468V12.6401V13.9728H67.9811H72.4941L72.4262 15.2723C72.2191 19.2402 70.5596 21.2567 66.8395 22.0612C65.4207 22.3681 62.9024 22.2417 61.617 21.7993C60.1738 21.3025 59.4136 20.833 58.4245 19.8274C57.4116 18.7976 56.6331 17.3505 56.1714 15.6388C55.9265 14.731 55.8842 14.2261 55.8867 12.2402C55.8894 10.2744 55.9344 9.74288 56.1741 8.85792C56.6329 7.16343 57.289 5.94061 58.2891 4.91611C59.8539 3.31306 61.6703 2.64427 64.4596 2.64427C67.6163 2.64427 69.7917 3.594 71.076 5.53305C71.359 5.96007 71.6311 6.36044 71.6809 6.42281C71.8024 6.57501 74.7065 5.70711 74.7065 5.51852C74.7065 5.15787 73.64 3.58867 72.8508 2.78781C71.3965 1.31257 69.7775 0.549147 67.3023 0.171839C65.7608 -0.0632619 63.1024 -0.05606 61.6831 0.186904ZM0.00390625 12.4408V24.5191L6.78002 24.4665C14.2553 24.4086 14.2892 24.4051 16.1783 23.5251C17.3091 22.9982 18.5758 21.8675 19.079 20.9356C19.7595 19.6754 20.0026 17.8412 19.6878 16.345C19.2282 14.1618 17.5431 12.6007 14.9903 11.9935L13.9864 11.7548L14.7872 11.4604C16.4992 10.8312 17.6487 9.66531 18.1373 8.06239C18.3691 7.30244 18.4045 6.92367 18.3497 5.79667C18.2694 4.15337 18.0031 3.46206 17.0644 2.46155C16.3331 1.68214 15.4852 1.2098 14.0073 0.75866C13.0597 0.469449 12.8122 0.457858 6.51559 0.411077L0.00390625 0.362563V12.4408ZM81.5817 12.4401V24.5017H89.8453H98.1088V23.169V21.8362H91.4319H84.7549V17.638V13.4397H90.5725H96.39V12.1069V10.7742H90.5705H84.751L84.786 6.87582L84.821 2.97746L91.0683 2.94281L97.3155 2.90815V1.64335V0.378555H89.4486H81.5817V12.4401ZM104.852 12.4401V24.5017H106.505H108.157V12.4401V0.378555H106.505H104.852V12.4401ZM115.826 12.4325V24.5017H117.413H118.999V19.5038V14.5059H122.802H126.606L128.377 17.7379C130.434 21.4922 130.922 22.2532 131.9 23.2396C133.298 24.6486 134.894 25.2225 136.583 24.9226C137.04 24.8415 137.445 24.7447 137.481 24.7079C137.518 24.671 137.414 24.1675 137.251 23.5889L136.954 22.5371L136.257 22.4646C135.394 22.3748 134.69 22.0218 133.971 21.3188C133.231 20.594 132.765 19.8453 131.124 16.7401L129.734 14.1096L130.283 13.9671C131.332 13.6949 131.66 13.5619 132.434 13.0933C133.447 12.4803 133.864 12.0794 134.488 11.117C135.239 9.96025 135.527 8.8915 135.525 7.26166C135.522 5.05192 135.022 3.7502 133.68 2.46008C132.855 1.66628 132.091 1.23166 130.7 0.764127C129.785 0.456523 129.697 0.452527 122.8 0.408279L115.826 0.363498V12.4325ZM149.631 0.474918C149.573 0.569011 140.727 22.3784 140.14 23.8727L139.89 24.5097L141.571 24.4724L143.252 24.4351L144.6 20.9699L145.947 17.5047H151.468H156.99L158.337 20.9699L159.685 24.4351L161.342 24.4723L163 24.5095L158.839 14.0766C156.551 8.33867 154.392 2.92415 154.042 2.04452L153.404 0.445194L151.549 0.408279C150.528 0.388021 149.665 0.418008 149.631 0.474918ZM38.3777 2.90176C41.1798 3.62412 43.1062 5.54971 44.0123 8.53379C44.6676 10.6915 44.6723 13.8779 44.0239 16.2364C42.9654 20.0864 40.0357 22.242 35.8733 22.2337C34.315 22.2305 33.0802 21.9505 31.7822 21.3056C29.8098 20.3256 28.29 18.299 27.6269 15.7643C27.2331 14.2586 27.1401 11.5137 27.427 9.85603C27.8079 7.65509 28.828 5.63488 30.124 4.51455C30.926 3.82124 32.4167 3.08062 33.477 2.84858C34.7648 2.56684 37.1803 2.59309 38.3777 2.90176ZM12.0732 3.107C14.098 3.53949 15.0543 4.49789 15.1763 6.2169C15.2976 7.92458 14.6053 9.33305 13.3197 9.9941C12.2748 10.5315 11.2664 10.6361 7.11056 10.6386L3.17711 10.6409V6.77586V2.91082L7.17667 2.91309C10.1431 2.91482 11.4079 2.96493 12.0732 3.107ZM128.569 3.05236C130.23 3.36197 131.342 4.10245 131.916 5.28209C132.244 5.95447 132.287 6.18997 132.285 7.30897C132.284 8.8935 131.967 9.70023 131.007 10.5711C129.672 11.7803 128.388 11.9979 122.9 11.9444L119.065 11.907L119.03 7.40893L118.996 2.91082H123.402C125.947 2.91082 128.13 2.97066 128.569 3.05236ZM152.103 4.57679C152.367 5.38311 153.348 8.022 154.283 10.441L155.982 14.8391L151.552 14.8742C149.115 14.8935 147.094 14.8827 147.062 14.8501C147.03 14.8175 147.804 12.7026 148.784 10.1503C149.763 7.59791 150.757 4.91971 150.993 4.19854C151.229 3.47738 151.467 2.93761 151.523 2.99905C151.578 3.06049 151.84 3.77046 152.103 4.57679ZM12.6501 13.2975C15.2609 13.7966 16.5658 15.1802 16.5658 17.4496C16.5658 19.9914 15.2875 21.3814 12.5363 21.8315C12.0791 21.9063 9.78624 21.9679 7.44111 21.9684L3.17711 21.9695V17.5713V13.1732H7.5884C10.0144 13.1732 12.2923 13.2291 12.6501 13.2975Z" fill="black"/>
</svg>
